<svg width="20" height="16" viewBox="0 0 20 16" fill="none" xmlns="http://www.w3.org/2000/svg">
<path fill-rule="evenodd" clip-rule="evenodd" d="M4.7722 1.6574C4.7731 1.65479 4.77399 1.65218 4.77399 1.64957C4.9856 0.68697 5.85881 0 6.86953 0H13.1312C14.142 0 15.0143 0.686948 15.2268 1.64957C15.2268 1.65218 15.2277 1.65479 15.2286 1.6574L15.3545 2.23304C15.425 2.55391 15.7161 2.78262 16.0536 2.78262H17.8571C18.4259 2.78262 18.9714 3.00262 19.3723 3.39392C19.775 3.78523 20 4.31566 20 4.86957V13.913C20 14.467 19.775 14.9974 19.3723 15.3887C18.9714 15.78 18.4259 16 17.8571 16H2.14286C1.57499 16 1.02946 15.78 0.628571 15.3887C0.225897 14.9974 0 14.467 0 13.913V4.86957C0 4.31566 0.225893 3.78523 0.628571 3.39392C1.02946 3.00262 1.57499 2.78262 2.14286 2.78262H3.94731C4.28482 2.78262 4.57499 2.55393 4.64642 2.23218L4.7722 1.6574ZM9.99986 4.17399C7.43826 4.17399 5.35712 6.20008 5.35712 8.69561C5.35712 11.1913 7.43838 13.2172 9.99986 13.2172C12.5624 13.2172 14.6426 11.1911 14.6426 8.69561C14.6426 6.19995 12.5622 4.17399 9.99986 4.17399ZM9.99986 5.56529C11.7749 5.56529 13.214 6.9679 13.214 8.69561C13.214 10.4234 11.7747 11.8259 9.99986 11.8259C8.22576 11.8259 6.78569 10.4233 6.78569 8.69561C6.78569 6.96779 8.22587 5.56529 9.99986 5.56529Z" fill="#006C5D"/>
</svg>
