<svg width="30" height="30" viewBox="0 0 30 30" fill="none" xmlns="http://www.w3.org/2000/svg">
<path opacity="0.3" d="M28.9464 8.38237C28.526 7.47132 17.1932 7.80836 17.1932 7.80836C17.1932 7.80836 16.1552 5.01321 15.8913 4.84937C15.6274 4.68554 6.75779 4.27624 6.29993 4.84966C5.84207 5.42309 4.00535 24.4318 4.27363 25.0134C4.54192 25.595 26.9262 25.5845 27.0485 25.0134C27.1708 24.4423 29.368 9.2937 28.9464 8.38237Z" fill="black"/>
<path d="M23.8253 10.7581C23.4026 9.84708 12.0058 10.1841 12.0058 10.1841C12.0058 10.1841 10.961 7.38925 10.6954 7.22542C10.4297 7.06158 1.50888 6.65229 1.04897 7.22542C0.58906 7.79855 3.51323 24.4319 3.78297 25.0136C4.05272 25.5952 26.5655 25.5846 26.6883 25.0136C26.8112 24.4425 24.2481 11.6695 23.8253 10.7581Z" fill="black"/>
</svg>
