<svg width="20" height="20" viewBox="0 0 20 20" fill="none" xmlns="http://www.w3.org/2000/svg">
<path fill-rule="evenodd" clip-rule="evenodd" d="M20 2.72727C20 1.22105 18.779 0 17.2727 0H2.72727C1.22105 0 0 1.22105 0 2.72727V17.2727C0 18.779 1.22105 20 2.72727 20H17.2727C18.779 20 20 18.779 20 17.2727V2.72727ZM18.1818 2.72727C18.1818 2.2252 17.7748 1.81818 17.2727 1.81818H2.72727C2.2252 1.81818 1.81818 2.2252 1.81818 2.72727V17.2727C1.81818 17.7748 2.2252 18.1818 2.72727 18.1818H17.2727C17.7748 18.1818 18.1818 17.7748 18.1818 17.2727V2.72727Z" fill="#006C5D"/>
<path d="M3.4606 15.0192L7.38373 7.82683C7.72829 7.19514 8.63537 7.19514 8.97991 7.82683L11.8605 13.1079L12.8471 11.3813C13.1961 10.7706 14.0766 10.7706 14.4256 11.3813L16.4955 15.0036C16.8418 15.6096 16.4042 16.3637 15.7062 16.3637H4.25868C3.56862 16.3637 3.13016 15.625 3.4606 15.0192Z" fill="#006C5D"/>
<path d="M15.4545 6.36362C15.4545 7.36778 14.6405 8.1818 13.6364 8.1818C12.6322 8.1818 11.8182 7.36778 11.8182 6.36362C11.8182 5.35947 12.6322 4.54544 13.6364 4.54544C14.6405 4.54544 15.4545 5.35947 15.4545 6.36362Z" fill="#006C5D"/>
</svg>
