<svg width="23" height="19" viewBox="0 0 23 19" fill="#E0245E" xmlns="http://www.w3.org/2000/svg">
<path d="M16.667 1C19.5521 1.00018 21.917 3.36489 21.917 6.25C21.917 7.51148 21.3333 8.86661 20.3203 10.248C19.3149 11.6191 17.9521 12.926 16.5547 14.0693C15.1621 15.2087 13.7641 16.1624 12.7119 16.832C12.195 17.161 11.7632 17.4193 11.46 17.5967C11.1566 17.4179 10.7245 17.1574 10.207 16.8262C9.15453 16.1524 7.75632 15.1937 6.36328 14.0508C4.96534 12.9038 3.60261 11.595 2.59668 10.2256C1.58249 8.84491 1 7.49696 1 6.25C1 3.36478 3.36479 1 6.25 1C8.09735 1 9.705 1.9208 10.6143 3.34961C10.7978 3.63797 11.1162 3.81239 11.458 3.8125C11.7998 3.8125 12.1182 3.63789 12.3018 3.34961C13.211 1.92079 14.8196 1 16.667 1Z" stroke="#E0245E" stroke-width="2" stroke-linejoin="round"/>
</svg>
