<svg width="24" height="24" viewBox="0 0 24 24" fill="none" xmlns="http://www.w3.org/2000/svg">
<path d="M13.8765 5.93827C13.8765 7.00859 13.0086 7.87577 11.9383 7.87577C10.868 7.87577 10 7.00859 10 5.93827C10 4.86796 10.868 4 11.9383 4C13.0086 4 13.8765 4.86796 13.8765 5.93827Z" fill="black"/>
<path d="M13.8765 12C13.8765 13.0703 13.0086 13.9383 11.9383 13.9383C10.868 13.9383 10 13.0703 10 12C10 10.9297 10.868 10.0617 11.9383 10.0617C13.0086 10.0617 13.8765 10.9297 13.8765 12Z" fill="black"/>
<path d="M13.8765 18.0617C13.8765 19.132 13.0086 20 11.9383 20C10.868 20 10 19.132 10 18.0617C10 16.9914 10.868 16.1242 11.9383 16.1242C13.0086 16.1242 13.8765 16.9914 13.8765 18.0617Z" fill="black"/>
</svg>
