<svg width="30" height="30" viewBox="0 0 30 30" fill="none" xmlns="http://www.w3.org/2000/svg">
<path d="M15.0167 13.8895C13.8428 12.4123 11.5592 9.18712 11.5592 7.48404C11.5592 5.29672 13.1102 3.51721 15.0166 3.51721C16.9231 3.51721 18.4741 5.29672 18.4741 7.48404C18.4741 9.18848 16.1905 12.4128 15.0167 13.8895Z" fill="#1C1C1E"/>
<path opacity="0.3" d="M13.0031 14.7753C13.4669 15.3927 13.8917 15.927 14.2257 16.3397H13.671C13.2588 16.3397 12.8264 16.3545 12.4103 16.3954C11.9943 16.4363 11.5937 16.5035 11.2452 16.6063C10.897 16.7091 10.6 16.8486 10.3907 17.0341C10.1816 17.2196 10.0596 17.452 10.0607 17.7411C10.0614 17.9288 10.1078 18.12 10.2091 18.3007C10.3104 18.4813 10.4667 18.6517 10.6866 18.7987C10.9068 18.9458 11.1917 19.0693 11.549 19.1561C11.906 19.2429 12.3363 19.2928 12.8488 19.2928H17.5265C18.1644 19.2929 18.7144 19.3849 19.1798 19.5448C19.6453 19.7048 20.0271 19.9333 20.3282 20.2069C20.6291 20.4803 20.85 20.799 20.9952 21.1395C21.1403 21.4799 21.2099 21.8426 21.2081 22.204C21.2056 22.7147 21.1091 23.1629 20.92 23.5468C20.7311 23.9301 20.449 24.2504 20.0753 24.5067C19.7014 24.763 19.2344 24.9553 18.6769 25.0839C18.1196 25.2123 17.4705 25.2772 16.7306 25.2772H9.73645C9.7015 25.3939 9.66061 25.5075 9.6134 25.6171C9.42694 26.0463 9.1757 26.4182 8.87708 26.7098C8.54546 27.0367 8.17597 27.287 7.78333 27.4491C7.34886 27.6302 6.89623 27.7207 6.44153 27.7186C5.98656 27.7207 5.53373 27.6302 5.09875 27.4501C4.70395 27.2875 4.33181 27.0381 3.99719 26.7118C3.69512 26.4204 3.43963 26.0485 3.24817 25.619C3.06816 25.2111 2.97061 24.7461 2.96497 24.2714C2.96222 23.7991 3.05259 23.334 3.22571 22.9237C3.41068 22.4909 3.66087 22.1152 3.96008 21.8212C4.29173 21.4923 4.66147 21.2402 5.05481 21.077C5.49215 20.8935 5.9484 20.8022 6.40637 20.8046C6.86286 20.8034 7.31696 20.8948 7.75305 21.077C8.14915 21.241 8.5225 21.4931 8.85754 21.8221C9.15973 22.1164 9.41384 22.4918 9.60364 22.9247C9.71293 23.1729 9.79042 23.4426 9.83508 23.7225H16.7325C17.3723 23.7225 17.8529 23.6703 18.213 23.5809C18.5728 23.4915 18.8134 23.365 18.9738 23.2177C19.134 23.0703 19.2144 22.9013 19.255 22.7274C19.2956 22.5534 19.2964 22.3732 19.297 22.204C19.2974 22.0786 19.2837 21.9315 19.2384 21.7821C19.1931 21.6327 19.1163 21.4802 18.9913 21.3436C18.8662 21.2069 18.6922 21.0858 18.4532 20.9989C18.2144 20.9121 17.91 20.8593 17.5236 20.8593H12.8517C12.3927 20.8592 11.9805 20.8271 11.6115 20.7723C11.2424 20.7176 10.9161 20.6396 10.629 20.5487C10.3419 20.4577 10.0931 20.3536 9.88 20.245C9.66699 20.1364 9.48881 20.0235 9.34192 19.9159C9.14992 19.7752 8.97915 19.6215 8.83118 19.4569C8.68316 19.2923 8.55774 19.1166 8.45618 18.9325C8.35467 18.7484 8.27732 18.5555 8.22473 18.3563C8.17209 18.1571 8.14385 17.951 8.1427 17.7411C8.14148 17.5175 8.17087 17.3025 8.22864 17.0985C8.28646 16.8945 8.37322 16.7003 8.4884 16.5184C8.60358 16.3366 8.74709 16.1659 8.91809 16.0087C9.08915 15.8515 9.28849 15.707 9.51379 15.577C9.74763 15.4422 10.011 15.3231 10.3019 15.2216C10.5929 15.12 10.9129 15.0347 11.2599 14.9667C11.6069 14.8987 11.9823 14.8475 12.3839 14.8134C12.5835 14.7964 12.7902 14.7838 13.0031 14.7753ZM23.5675 12.161C24.0242 12.1589 24.4783 12.2507 24.9142 12.4335C25.308 12.597 25.6785 12.8486 26.0099 13.1776C26.3086 13.4719 26.5582 13.8467 26.7423 14.2782C26.9156 14.6886 27.0056 15.1533 27.0031 15.6249C26.9975 16.0984 26.9003 16.5618 26.7208 16.9696C26.5297 17.3995 26.2746 17.7728 25.9718 18.0653C25.6378 18.3909 25.2659 18.64 24.8712 18.8026C24.4351 18.9847 23.9803 19.0765 23.5236 19.0751C23.069 19.0768 22.6168 18.9859 22.1827 18.8046C21.7901 18.6423 21.4201 18.3925 21.089 18.0663C20.7898 17.7739 20.5395 17.401 20.3536 16.9716C20.2682 16.7723 20.2028 16.5596 20.1583 16.3397H15.714C16.0503 15.9242 16.479 15.3852 16.9464 14.7626H20.1993C20.2428 14.5954 20.2994 14.4337 20.3673 14.2802C20.5565 13.8478 20.8102 13.4725 21.1124 13.1776C21.4475 12.8489 21.8211 12.5972 22.2179 12.4335C22.6547 12.251 23.11 12.1593 23.5675 12.161Z" fill="#1C1C1E"/>
</svg>
