<svg width="30" height="30" viewBox="0 0 30 30" fill="none" xmlns="http://www.w3.org/2000/svg">
<path d="M15.0474 25.9372C15.419 25.9475 15.7883 25.8773 16.1302 25.7316C16.4721 25.5858 16.7784 25.3679 17.0282 25.0927C17.278 24.8175 17.4654 24.4916 17.5775 24.1372C17.6895 23.7829 17.7237 23.4085 17.6776 23.0397H12.4064C12.3602 23.4094 12.3946 23.7848 12.5073 24.1399C12.62 24.4951 12.8083 24.8216 13.0593 25.0969C13.3103 25.3723 13.618 25.59 13.9612 25.7351C14.3044 25.8801 14.675 25.9491 15.0474 25.9372Z" fill="black"/>
<path d="M23.581 20.263C22.7396 19.1529 21.0825 18.4987 21.0825 13.5329C21.0825 8.43143 18.8297 6.38214 16.7302 5.8895C16.5334 5.84064 16.3909 5.77414 16.3909 5.5665V5.40771C16.3909 5.05389 16.2504 4.71457 16.0002 4.46438C15.75 4.21419 15.4107 4.07364 15.0568 4.07364C14.703 4.07364 14.3637 4.21419 14.1135 4.46438C13.8633 4.71457 13.7228 5.05389 13.7228 5.40771V5.5665C13.7228 5.76871 13.587 5.83792 13.3835 5.8895C11.2785 6.38757 9.03112 8.43143 9.03112 13.5329C9.03112 18.5028 7.37405 19.1474 6.53262 20.263C6.41118 20.4244 6.33717 20.6165 6.3189 20.8176C6.30064 21.0188 6.33884 21.221 6.42923 21.4016C6.51961 21.5823 6.65859 21.7341 6.83053 21.8401C7.00247 21.946 7.20057 22.0019 7.40255 22.0015H22.7179C22.9193 22.0007 23.1165 21.9439 23.2875 21.8374C23.4584 21.7309 23.5964 21.579 23.686 21.3986C23.7755 21.2182 23.8131 21.0165 23.7946 20.8159C23.7761 20.6154 23.7021 20.4239 23.581 20.263Z" fill="black"/>
<path d="M14.9985 6.85713C15.748 6.85713 16.3556 6.24952 16.3556 5.49999C16.3556 4.75046 15.748 4.14285 14.9985 4.14285C14.249 4.14285 13.6414 4.75046 13.6414 5.49999C13.6414 6.24952 14.249 6.85713 14.9985 6.85713Z" fill="black"/>
</svg>
