<svg width="30" height="30" viewBox="0 0 30 30" fill="none" xmlns="http://www.w3.org/2000/svg">
<path d="M11.397 21.6049L15.4971 19.5551C15.8838 19.3615 16.1241 18.9727 16.1241 18.54V17.0889C16.0258 16.9688 15.9224 16.8318 15.8155 16.6808C15.2838 15.9297 14.8576 15.0936 14.5477 14.1919C13.9421 13.9142 13.5489 13.3154 13.5489 12.6395V10.9227C13.5489 10.5094 13.7035 10.1089 13.9781 9.79603V7.51314C13.9541 7.27708 13.8597 5.87189 14.876 4.71263C15.7576 3.70703 17.1881 3.19714 19.1285 3.19714C21.0689 3.19714 22.4994 3.70703 23.381 4.71221C24.3973 5.87146 24.3029 7.27708 24.2788 7.51271V9.7956C24.5535 10.1085 24.708 10.5089 24.708 10.9222V12.639C24.708 13.1614 24.4707 13.6485 24.0655 13.9734C23.6724 15.5301 22.8496 16.7031 22.5621 17.0795V18.4997C22.5621 18.9152 22.7887 19.2963 23.1531 19.4954L26.9819 21.5839C28.227 22.2637 29 23.5659 29 24.984V26.8029H9.25699V25.0677C9.25699 23.5917 10.0772 22.265 11.397 21.6049Z" fill="#1C1C1E"/>
<path opacity="0.3" d="M2.9456 22.0914L7.11868 20.2845C7.21739 20.2351 7.32683 20.1145 7.42083 19.9536L4.62033 19.9514C4.62033 19.9514 4.45852 19.9673 4.20744 19.9673C3.74691 19.9673 3.07522 19.9149 2.49066 19.6639C2.14 19.5128 1.87905 19.2145 1.77433 18.8454C1.66875 18.4728 1.7357 18.0784 1.95717 17.7625C2.75762 16.6234 4.62591 13.647 4.68428 10.628C4.68556 10.5761 4.85467 5.44202 9.92476 5.40039C10.4342 5.40468 10.9158 5.46735 11.372 5.57765C11.0321 6.47638 11.0634 7.2807 11.0866 7.54165V9.57303C10.8085 9.96875 10.6574 10.4387 10.6574 10.9211V12.6379C10.6574 13.4564 11.0883 14.2139 11.7763 14.6388C12.0973 15.5067 12.5223 16.3174 13.042 17.0513C13.1064 17.1428 13.1699 17.229 13.2321 17.3106L13.2629 18.3713C13.2629 18.561 13.1616 18.7254 12.9921 18.8099L8.89195 20.8597C7.35242 21.6297 6.36544 23.3438 6.36544 25.0653V26.8014H1.00006V25.2147C1.00006 23.8876 1.73742 22.6953 2.9456 22.0914Z" fill="#1C1C1E"/>
</svg>
